<svg className="logo" width="151" height="22" viewBox="0 0 151 22" fill="none" xmlns="http://www.w3.org/2000/svg">
    <path d="M10.444 16.94V21H8.00801C6.27201 21 4.91868 20.58 3.94801 19.74C2.97735 18.8814 2.49201 17.4907 2.49201 15.568V9.35203H0.588013V5.37603H2.49201V1.56803H7.28001V5.37603H10.416V9.35203H7.28001V15.624C7.28001 16.0907 7.39201 16.4267 7.61601 16.632C7.84001 16.8374 8.21335 16.94 8.73601 16.94H10.444Z" fill="#4E5FFF" />
    <path d="M27.839 12.936C27.839 13.384 27.811 13.8507 27.755 14.336H16.919C16.9937 15.3067 17.3017 16.0534 17.843 16.576C18.403 17.08 19.0843 17.332 19.887 17.332C21.0817 17.332 21.9123 16.828 22.379 15.82H27.475C27.2137 16.8467 26.7377 17.7707 26.047 18.592C25.375 19.4134 24.5257 20.0574 23.499 20.524C22.4723 20.9907 21.3243 21.224 20.055 21.224C18.5243 21.224 17.1617 20.8974 15.967 20.244C14.7723 19.5907 13.839 18.6574 13.167 17.444C12.495 16.2307 12.159 14.812 12.159 13.188C12.159 11.564 12.4857 10.1454 13.139 8.93203C13.811 7.7187 14.7443 6.78536 15.939 6.13203C17.1337 5.4787 18.5057 5.15203 20.055 5.15203C21.567 5.15203 22.911 5.46936 24.087 6.10403C25.263 6.7387 26.1777 7.64403 26.831 8.82003C27.503 9.99603 27.839 11.368 27.839 12.936ZM22.939 11.676C22.939 10.8547 22.659 10.2014 22.099 9.71603C21.539 9.2307 20.839 8.98803 19.999 8.98803C19.1963 8.98803 18.515 9.22136 17.955 9.68803C17.4137 10.1547 17.0777 10.8174 16.947 11.676H22.939Z" fill="#4E5FFF" />
    <path d="M29.4129 13.16C29.4129 11.5547 29.7116 10.1454 30.3089 8.93203C30.9249 7.7187 31.7556 6.78536 32.8009 6.13203C33.8463 5.4787 35.0129 5.15203 36.3009 5.15203C37.4023 5.15203 38.3636 5.37603 39.1849 5.82403C40.0249 6.27203 40.6689 6.86003 41.1169 7.58803V5.37603H45.9049V21H41.1169V18.788C40.6503 19.516 39.9969 20.104 39.1569 20.552C38.3356 21 37.3743 21.224 36.2729 21.224C35.0036 21.224 33.8463 20.8974 32.8009 20.244C31.7556 19.572 30.9249 18.6294 30.3089 17.416C29.7116 16.184 29.4129 14.7654 29.4129 13.16ZM41.1169 13.188C41.1169 11.9934 40.7809 11.0507 40.1089 10.36C39.4556 9.66936 38.6529 9.32403 37.7009 9.32403C36.7489 9.32403 35.9369 9.66936 35.2649 10.36C34.6116 11.032 34.2849 11.9654 34.2849 13.16C34.2849 14.3547 34.6116 15.3067 35.2649 16.016C35.9369 16.7067 36.7489 17.052 37.7009 17.052C38.6529 17.052 39.4556 16.7067 40.1089 16.016C40.7809 15.3254 41.1169 14.3827 41.1169 13.188Z" fill="#4E5FFF" />
    <path d="M69.3048 5.20803C71.2462 5.20803 72.7862 5.79603 73.9248 6.97203C75.0822 8.14803 75.6608 9.78136 75.6608 11.872V21H70.9008V12.516C70.9008 11.508 70.6302 10.7334 70.0888 10.192C69.5662 9.63203 68.8382 9.35203 67.9048 9.35203C66.9715 9.35203 66.2342 9.63203 65.6928 10.192C65.1702 10.7334 64.9088 11.508 64.9088 12.516V21H60.1488V12.516C60.1488 11.508 59.8782 10.7334 59.3368 10.192C58.8142 9.63203 58.0862 9.35203 57.1528 9.35203C56.2195 9.35203 55.4822 9.63203 54.9408 10.192C54.4182 10.7334 54.1568 11.508 54.1568 12.516V21H49.3688V5.37603H54.1568V7.33603C54.6422 6.6827 55.2768 6.16936 56.0608 5.79603C56.8448 5.40403 57.7315 5.20803 58.7208 5.20803C59.8968 5.20803 60.9422 5.46003 61.8568 5.96403C62.7902 6.46803 63.5182 7.1867 64.0408 8.12003C64.5822 7.26136 65.3195 6.56136 66.2528 6.02003C67.1862 5.4787 68.2035 5.20803 69.3048 5.20803Z" fill="#4E5FFF" />
    <path d="M78.0574 13.188C78.0574 11.564 78.3841 10.1454 79.0375 8.93203C79.7095 7.7187 80.6334 6.78536 81.8094 6.13203C83.0041 5.4787 84.3668 5.15203 85.8975 5.15203C87.8575 5.15203 89.4908 5.66536 90.7974 6.69203C92.1228 7.7187 92.9908 9.16536 93.4015 11.032H88.3055C87.8761 9.83736 87.0455 9.24003 85.8135 9.24003C84.9361 9.24003 84.2361 9.58536 83.7134 10.276C83.1908 10.948 82.9295 11.9187 82.9295 13.188C82.9295 14.4574 83.1908 15.4374 83.7134 16.128C84.2361 16.8 84.9361 17.136 85.8135 17.136C87.0455 17.136 87.8761 16.5387 88.3055 15.344H93.4015C92.9908 17.1734 92.1228 18.6107 90.7974 19.656C89.4721 20.7014 87.8388 21.224 85.8975 21.224C84.3668 21.224 83.0041 20.8974 81.8094 20.244C80.6334 19.5907 79.7095 18.6574 79.0375 17.444C78.3841 16.2307 78.0574 14.812 78.0574 13.188Z" fill="#4E5FFF" />
    <path d="M105.567 5.20803C107.359 5.20803 108.796 5.80536 109.879 7.00003C110.961 8.17603 111.503 9.80003 111.503 11.872V21H106.743V12.516C106.743 11.4707 106.472 10.6587 105.931 10.08C105.389 9.50136 104.661 9.21203 103.747 9.21203C102.832 9.21203 102.104 9.50136 101.563 10.08C101.021 10.6587 100.751 11.4707 100.751 12.516V21H95.9626V0.280029H100.751V7.47603C101.236 6.78536 101.899 6.23469 102.739 5.82403C103.579 5.41336 104.521 5.20803 105.567 5.20803Z" fill="#4E5FFF" />
    <path d="M113.878 13.16C113.878 11.5547 114.176 10.1454 114.774 8.93203C115.39 7.7187 116.22 6.78536 117.266 6.13203C118.311 5.4787 119.478 5.15203 120.766 5.15203C121.867 5.15203 122.828 5.37603 123.65 5.82403C124.49 6.27203 125.134 6.86003 125.582 7.58803V5.37603H130.37V21H125.582V18.788C125.115 19.516 124.462 20.104 123.622 20.552C122.8 21 121.839 21.224 120.738 21.224C119.468 21.224 118.311 20.8974 117.266 20.244C116.22 19.572 115.39 18.6294 114.774 17.416C114.176 16.184 113.878 14.7654 113.878 13.16ZM125.582 13.188C125.582 11.9934 125.246 11.0507 124.574 10.36C123.92 9.66936 123.118 9.32403 122.166 9.32403C121.214 9.32403 120.402 9.66936 119.73 10.36C119.076 11.032 118.75 11.9654 118.75 13.16C118.75 14.3547 119.076 15.3067 119.73 16.016C120.402 16.7067 121.214 17.052 122.166 17.052C123.118 17.052 123.92 16.7067 124.574 16.016C125.246 15.3254 125.582 14.3827 125.582 13.188Z" fill="#4E5FFF" />
    <path d="M142.542 16.94V21H140.106C138.37 21 137.016 20.58 136.046 19.74C135.075 18.8814 134.59 17.4907 134.59 15.568V9.35203H132.686V5.37603H134.59V1.56803H139.378V5.37603H142.514V9.35203H139.378V15.624C139.378 16.0907 139.49 16.4267 139.714 16.632C139.938 16.8374 140.311 16.94 140.834 16.94H142.542Z" fill="#4E5FFF" />
    <path d="M147.449 21.224C146.609 21.224 145.918 20.9814 145.377 20.496C144.854 19.992 144.593 19.376 144.593 18.648C144.593 17.9014 144.854 17.276 145.377 16.772C145.918 16.268 146.609 16.016 147.449 16.016C148.27 16.016 148.942 16.268 149.465 16.772C150.006 17.276 150.277 17.9014 150.277 18.648C150.277 19.376 150.006 19.992 149.465 20.496C148.942 20.9814 148.27 21.224 147.449 21.224Z" fill="black" />
</svg>
